Coordinates
version=1
nRows=6
nColumns=34
inDegrees=yes

Units are S.I. units (second, meters, Newtons, ...)
If the header above contains a line with 'inDegrees', this indicates whether rotational values are in degrees (yes) or radians (no).

endheader
time	pelvis_tilt	pelvis_list	pelvis_rotation	pelvis_tx	pelvis_ty	pelvis_tz	hip_flexion_r	hip_adduction_r	hip_rotation_r	knee_angle_r	ankle_angle_r	subtalar_angle_r	mtp_angle_r	hip_flexion_l	hip_adduction_l	hip_rotation_l	knee_angle_l	ankle_angle_l	subtalar_angle_l	mtp_angle_l	lumbar_extension	lumbar_bending	lumbar_rotation	arm_flex_r	arm_add_r	arm_rot_r	elbow_flex_r	pro_sup_r	arm_flex_l	arm_add_l	arm_rot_l	elbow_flex_l	pro_sup_l
      9.03333330	     -0.20294219	    -18.35578566	    -54.58178605	      3.21685849	      0.99349213	      1.37724344	    -16.53296180	      4.00432295	      0.24564410	     23.44781820	     17.97264298	     14.61381146	      0.00000000	    -20.41667340	     10.94502295	     20.94344208	      0.00000000	      9.50517440	    -20.90590766	      0.00000000	     -4.11339910	     12.32698614	     -8.62810053	     18.81276214	      9.74497087	     22.91002703	     16.21283659	    107.79429891	     21.53981383	     -2.05979880	     18.13099480	     36.90867199	    118.15134513
      9.05000000	     -0.34796273	    -18.65764078	    -54.32868455	      3.21872427	      0.99328180	      1.37609575	    -17.17703399	      4.35845804	      0.36291770	     22.95489974	     18.07422983	     14.39377352	      0.00000000	    -20.60609673	     10.68356794	     21.82273386	      0.00000000	      8.89099298	    -22.20477887	      0.00000000	     -4.22213647	     12.62328260	     -8.92368649	     18.74161059	      9.76808462	     20.21340218	     16.63622262	    107.90407927	     21.35573671	     -2.29338412	     18.42534295	     38.08540180	    117.90260495
      9.06666670	     -0.55356381	    -18.72265350	    -54.43263376	      3.22038328	      0.99295903	      1.37613760	    -17.64911009	      4.48049463	      0.45166443	     22.38614886	     18.64297921	     14.51387576	      0.00000000	    -20.47212583	     10.63077418	     21.99882103	      0.24931781	      9.03312459	    -22.57276769	      0.00000000	     -3.98590350	     12.82089686	     -8.88922247	     18.75423960	      9.58127037	     19.85901096	     16.65303745	    107.96084702	     21.09622357	     -2.47352177	     18.72664209	     38.86891934	    117.89058830
      9.08333330	     -0.62645833	    -18.68503807	    -54.36095652	      3.22171717	      0.99244004	      1.37646256	    -18.28158093	      4.57409344	      0.56300501	     21.47055562	     19.46860865	     14.53698028	      0.00000000	    -19.98421322	     10.80454428	     22.08538481	      1.25285815	      9.27807591	    -23.11517928	      0.00000000	     -3.83307855	     12.79379503	     -9.13952751	     18.77633803	      9.60847853	     19.33016154	     16.73263078	    107.97611798	     20.77925851	     -2.91408403	     19.00366101	     39.55660694	    117.83296119
      9.10000000	     -0.56935256	    -18.60824162	    -54.34314064	      3.22285088	      0.99179617	      1.37689984	    -19.16945393	      4.52123820	      0.60524598	     20.17004624	     20.94933352	     14.45903672	      0.00000000	    -19.43750997	     11.16641175	     22.10888078	      2.44514188	      9.60699525	    -23.62400091	      0.00000000	     -3.67769322	     12.62877266	     -9.14334599	     18.65753151	      9.58455737	     18.91323842	     16.85285895	    107.98498743	     20.57809699	     -3.21572263	     19.05507188	     40.08261727	    117.75189680
      9.11666670	     -0.52163879	    -18.60818500	    -54.03602898	      3.22397197	      0.99102978	      1.37629036	    -19.96989726	      4.54029905	     -0.02442199	     19.09427964	     22.70113933	     14.43539141	      0.00000000	    -18.71324193	     11.46132340	     22.25582665	      4.07890860	     10.26014476	    -23.94221678	      0.00000000	     -3.67393897	     12.49256200	     -9.27687863	     18.51184673	      9.52994128	     17.89860675	     17.08376307	    108.00781447	     20.35351493	     -3.54879658	     19.37076253	     41.54540842	    117.63585489
